# xmcd
# 
# Track frame offsets:
#     150
#     18839
#     41550
# 
# Disc length: 1042
# 
# Revision: 0
# Processed by: cddbd v1.5.2PL0 Copyright (c) Steve Scherf et al.
# Submitted via: fre:ac v1.0.17
# 
DISCID=18041003
DTITLE=中野テルヲ - My Demolition Work Vol.1
DYEAR=2011
DGENRE=
TTITLE0=デッドエンド羅針[Dub]
TTITLE1=Long Distance,Long Time[Dub]
TTITLE2=ファインダー[Version Ⅱ]
EXTD=
EXTT0=
EXTT1=
EXTT2=
PLAYORDER=
